HIERARCHY
ROOT Hip
{
	OFFSET 0 1.131 0.0052
	CHANNELS 6 Xposition Yposition Zposition Xrotation Yrotation Zrotation
	JOINT Abdomen
	{
		OFFSET 0 -0.047353 -0.05
		CHANNELS 3 Xrotation Zrotation Yrotation
		JOINT Chest
		{
			OFFSET 0 0.132153 0.007439
			CHANNELS 3 Xrotation Zrotation Yrotation
			JOINT Neck
			{
				OFFSET 0 0.3078 0.006161
				CHANNELS 3 Xrotation Zrotation Yrotation
				JOINT Head_comp
				{
					OFFSET 0 0.0884 0.013
					CHANNELS 3 Xrotation Yrotation Zrotation
					End Site
					{
						OFFSET -0 0.156 0.0624
					}
				}
			}
			JOINT Left_Collar
			{
				OFFSET 0.02282 0.250342 0.017193
				CHANNELS 2 Yrotation Zrotation
				JOINT Left_Shoulder
				{
					OFFSET 0.15421 0 0
					CHANNELS 3 Xrotation Yrotation Zrotation
					JOINT Left_Forearm
					{
						OFFSET 0.265212 0 0
						CHANNELS 2 Yrotation Xrotation
						JOINT Left_Hand
						{
							OFFSET 0.27571 0 0
							CHANNELS 2 Zrotation Yrotation
							JOINT L1ProxPhalanx
							{
								OFFSET 0.014142 0.001733 0.014142
								CHANNELS 3 Yrotation Zrotation Xrotation
								JOINT L1MidPhalanx
								{
									OFFSET 0.04 0 0
									CHANNELS 1 Zrotation
									JOINT L1DistPhalanx
									{
										OFFSET 0.035 0 0
										CHANNELS 1 Zrotation
										End Site
										{
											OFFSET 0.029 -0 -0
										}
									}
								}
							}
							JOINT L2ProxPhalanx
							{
								OFFSET 0.0821037 0.001578 0.0219996
								CHANNELS 2 Yrotation Zrotation
								JOINT L2MidPhalanx
								{
									OFFSET 0.04 0 0
									CHANNELS 1 Zrotation
									JOINT L2DistPhalanx
									{
										OFFSET 0.028 0 0
										CHANNELS 1 Zrotation
										End Site
										{
											OFFSET 0.02 -0 -0
										}
									}
								}
							}
							JOINT L3ProxPhalanx
							{
								OFFSET 0.083 0 0
								CHANNELS 2 Yrotation Zrotation
								JOINT L3MidPhalanx
								{
									OFFSET 0.053 0 0
									CHANNELS 1 Zrotation
									JOINT L3DistPhalanx
									{
										OFFSET 0.03 0 0
										CHANNELS 1 Zrotation
										End Site
										{
											OFFSET 0.023 -0 -0
										}
									}
								}
							}
							JOINT L4ProxPhalanx
							{
								OFFSET 0.077274 -0.000761 -0.0207055
								CHANNELS 2 Yrotation Zrotation
								JOINT L4MidPhalanx
								{
									OFFSET 0.05 0 0
									CHANNELS 1 Zrotation
									JOINT L4DistPhalanx
									{
										OFFSET 0.03 0 0
										CHANNELS 1 Zrotation
										End Site
										{
											OFFSET 0.023 -0 -0
										}
									}
								}
							}
							JOINT L5ProxPhalanx
							{
								OFFSET 0.0675499 -0.001644 -0.039
								CHANNELS 2 Yrotation Zrotation
								JOINT L5MidPhalanx
								{
									OFFSET 0.04 0 0
									CHANNELS 1 Zrotation
									JOINT L5DistPhalanx
									{
										OFFSET 0.021 0 0
										CHANNELS 1 Zrotation
										End Site
										{
											OFFSET 0.022 -0 -0
										}
									}
								}
							}
						}
					}
				}
			}
			JOINT Right_Collar
			{
				OFFSET -0.02282 0.250342 0.017193
				CHANNELS 2 Yrotation Zrotation
				JOINT Right_Shoulder
				{
					OFFSET -0.15421 0 0
					CHANNELS 3 Xrotation Yrotation Zrotation
					JOINT Right_Forearm
					{
						OFFSET -0.265212 0 0
						CHANNELS 2 Yrotation Xrotation
						JOINT Right_Hand
						{
							OFFSET -0.27571 3e-006 0
							CHANNELS 2 Zrotation Yrotation
							JOINT R1ProxPhalanx
							{
								OFFSET -0.014142 0.001733 0.014142
								CHANNELS 3 Yrotation Zrotation Xrotation
								JOINT R1MidPhalanx
								{
									OFFSET -0.04 0 0
									CHANNELS 1 Zrotation
									JOINT R1DistPhalanx
									{
										OFFSET -0.035 0 0
										CHANNELS 1 Zrotation
										End Site
										{
											OFFSET -0.029 -0 -0
										}
									}
								}
							}
							JOINT R2ProxPhalanx
							{
								OFFSET -0.0821037 0.001578 0.0219996
								CHANNELS 2 Yrotation Zrotation
								JOINT R2MidPhalanx
								{
									OFFSET -0.04 0 0
									CHANNELS 1 Zrotation
									JOINT R2DistPhalanx
									{
										OFFSET -0.028 0 0
										CHANNELS 1 Zrotation
										End Site
										{
											OFFSET -0.02 -0 -0
										}
									}
								}
							}
							JOINT R3ProxPhalanx
							{
								OFFSET -0.083 0 0
								CHANNELS 2 Yrotation Zrotation
								JOINT R3MidPhalanx
								{
									OFFSET -0.053 0 0
									CHANNELS 1 Zrotation
									JOINT R3DistPhalanx
									{
										OFFSET -0.03 0 0
										CHANNELS 1 Zrotation
										End Site
										{
											OFFSET -0.023 -0 -0
										}
									}
								}
							}
							JOINT R4ProxPhalanx
							{
								OFFSET -0.077274 -0.000761 -0.0207055
								CHANNELS 2 Yrotation Zrotation
								JOINT R4MidPhalanx
								{
									OFFSET -0.05 0 0
									CHANNELS 1 Zrotation
									JOINT R4DistPhalanx
									{
										OFFSET -0.03 0 0
										CHANNELS 1 Zrotation
										End Site
										{
											OFFSET -0.023 -0 -0
										}
									}
								}
							}
							JOINT R5ProxPhalanx
							{
								OFFSET -0.0675499 -0.001644 -0.039
								CHANNELS 2 Yrotation Zrotation
								JOINT R5MidPhalanx
								{
									OFFSET -0.04 0 0
									CHANNELS 1 Zrotation
									JOINT R5DistPhalanx
									{
										OFFSET -0.021 0 0
										CHANNELS 1 Zrotation
										End Site
										{
											OFFSET -0.022 -0 -0
										}
									}
								}
							}
						}
					}
				}
			}
		}
	}
	JOINT Left_Thigh
	{
		OFFSET 0.1118 -0.1612 -0.0442
		CHANNELS 3 Xrotation Zrotation Yrotation
		JOINT Left_Shin
		{
			OFFSET 0 -0.477856 0
			CHANNELS 1 Xrotation
			JOINT Left_Foot
			{
				OFFSET 0 -0.431952 0
				CHANNELS 2 Xrotation Zrotation
				JOINT Left_Toe
				{
					OFFSET 0 -0.0442 0.119
					CHANNELS 1 Xrotation
					End Site
					{
						OFFSET -0 -0 0.07
					}
				}
			}
		}
	}
	JOINT Right_Thigh
	{
		OFFSET -0.1118 -0.1612 -0.0442
		CHANNELS 3 Xrotation Zrotation Yrotation
		JOINT Right_Shin
		{
			OFFSET 0 -0.477856 0
			CHANNELS 1 Xrotation
			JOINT Right_Foot
			{
				OFFSET 0 -0.431952 0
				CHANNELS 2 Xrotation Zrotation
				JOINT Right_Toe
				{
					OFFSET 0 -0.0442 0.119
					CHANNELS 1 Xrotation
					End Site
					{
						OFFSET -0 -0 0.07
					}
				}
			}
		}
	}
}
MOTION
Frames: 11
Frame Time: 0.009975
-0.101699 -0.0600483 0.0384167 -8.18243e-012 -3.91077e-009 -5.10964e-006 0 -0 0 0 -0 0 0 -0 0 -0.711888 0.291493 -6.67457e-012 -8.93087 -17.6495 -30.3724 -18.6996 -30.9536 -32.1889 -0.268775 36.7784 2.16297 -37.9546 -59.6172 113.134 -6.70756 -6.90105 8.02897 0.0982623 -15.0409 -19.3986 5.4926 1.69229 -5.20773 -5.75983 1.24779 2.85104 -8.80665 0.784666 3.14926 5.83437 -63.8085 46.1417 6.82244 11.8169 -7.19327 0.755374 38.5516 69.1845 -0.755957 -24.5453 -1.31038 38.6813 41.0231 90.3595 17.4424 19.0243 3.60548 10.2523 23.0415 19.4725 -3.37682 12.0347 20.0714 17.9725 -6.57526 16.3279 21.9222 13.0441 -6.61835 12.8299 44.826 -2.10862 -0.0481404 -0.636134 0.000534638 0.0240216 0.0241158 0.636139 0 -0.0367349 -0.636134 0.000408007 2.41484e-006 0.0367302 0.636139 0 
-0.101781 -0.0600473 0.0386439 -2.43714e-011 -1.99982e-009 -5.10963e-006 0 -0 0 0 -0 0 0 -0 0 -0.711901 0.291731 -6.95099e-012 -8.93087 -17.6495 -30.3724 -18.6996 -30.9536 -32.1889 -0.268775 36.7784 2.16297 -37.9546 -59.6172 113.134 -6.70756 -6.90105 8.02897 0.0982623 -15.0409 -19.3986 5.4926 1.69229 -5.20773 -5.75983 1.24779 2.85104 -8.80665 0.784666 3.14926 5.83437 -63.8085 46.1417 6.66225 11.6317 -6.02583 0.474812 39.1566 70.3584 -0.738208 -23.9689 -1.27961 38.6469 40.4193 89.5865 17.8506 19.4614 4.04676 10.6217 23.319 19.4801 -3.22017 12.5172 20.6533 18.4435 -6.67066 16.9949 22.3992 13.5414 -6.6746 13.475 44.3772 -0.618206 -0.0338301 -0.630954 0.000372704 0.0240216 0.00980638 0.63096 0 -0.0224246 -0.630954 0.000247103 1.21949e-006 0.022422 0.63096 0 
-0.101865 -0.0600463 0.0388723 -7.7023e-012 -7.17142e-010 -5.10963e-006 0 -0 0 0 -0 0 0 -0 0 -0.711914 0.291974 -7.22514e-012 -8.93087 -17.6495 -30.3724 -18.6996 -30.9536 -32.1889 -0.268775 36.7784 2.16297 -37.9546 -59.6172 113.134 -6.70756 -6.90105 8.02897 0.0982623 -15.0409 -19.3986 5.4926 1.69229 -5.20773 -5.75983 1.24779 2.85104 -8.80665 0.784666 3.14926 5.83437 -63.8085 46.1417 6.50059 11.4447 -4.85072 0.227828 39.774 71.4943 -0.720294 -23.3873 -1.24856 38.6125 39.8156 88.8136 18.2587 19.8986 4.48805 10.9912 23.5966 19.4877 -3.06352 12.9997 21.2352 18.9144 -6.76606 17.6618 22.8762 14.0386 -6.73085 14.1201 43.9285 0.872209 -0.019447 -0.625655 0.000212522 0.0240216 -0.00457577 0.62566 0 -0.00804152 -0.625655 8.79651e-005 0 0.00804104 0.62566 0 
-0.101951 -0.0600453 0.0391017 -1.13083e-010 5.71029e-010 -5.10962e-006 0 -0 0 0 -0 0 0 -0 0 -0.711928 0.292223 -7.49672e-012 -8.93087 -17.6495 -30.3724 -18.6996 -30.9536 -32.1889 -0.268775 36.7784 2.16297 -37.9546 -59.6172 113.134 -6.70756 -6.90105 8.02897 0.0982623 -15.0409 -19.3986 5.4926 1.69229 -5.20773 -5.75983 1.24779 2.85104 -8.80665 0.784666 3.14926 5.83437 -63.8085 46.1417 6.33754 11.2561 -3.66926 0.0149041 40.4032 72.5914 -0.702229 -22.8007 -1.21725 38.5781 39.2118 88.0406 18.6668 20.3357 4.92933 11.3607 23.8742 19.4953 -2.90687 13.4822 21.817 19.3854 -6.86146 18.3288 23.3533 14.5359 -6.7871 14.7652 43.4798 2.36262 -0.00500236 -0.620238 5.43236e-005 0.0240216 -0.0190196 0.620244 0 0.00640313 -0.620239 -6.91527e-005 1.18327e-006 -0.00640394 0.620244 0 
-0.102039 -0.0600444 0.0393318 -2.48535e-010 1.23096e-009 -5.10962e-006 0 -0 0 0 -0 0 0 -0 0 -0.711941 0.292477 -7.76477e-012 -8.93087 -17.6495 -30.3724 -18.6996 -30.9536 -32.1889 -0.268775 36.7784 2.16297 -37.9546 -59.6172 113.134 -6.70756 -6.90105 8.02897 0.0982623 -15.0409 -19.3986 5.4926 1.69229 -5.20773 -5.75983 1.24779 2.85104 -8.80665 0.784666 3.14926 5.83437 -63.8085 46.1417 6.17322 11.0659 -2.48277 -0.163599 41.0435 73.6491 -0.684021 -22.2095 -1.18569 38.5437 38.608 87.2677 19.075 20.7728 5.37062 11.7301 24.1517 19.5029 -2.75022 13.9647 22.3989 19.8563 -6.95686 18.9957 23.8303 15.0332 -6.84335 15.4102 43.031 3.85304 0.00949344 -0.614707 -0.000101674 0.0240216 -0.0335145 0.614712 0 0.0208981 -0.614707 -0.000224026 2.41484e-006 -0.0208995 0.614712 0 
-0.102129 -0.0600436 0.0395626 -3.46687e-011 2.529e-009 -5.10962e-006 0 -0 0 0 -0 0 0 -0 0 -0.711955 0.292737 -8.02889e-012 -8.93087 -17.6495 -30.3724 -18.6996 -30.9536 -32.1889 -0.268775 36.7784 2.16297 -37.9546 -59.6172 113.134 -6.70756 -6.90105 8.02897 0.0982623 -15.0409 -19.3986 5.4926 1.69229 -5.20773 -5.75983 1.24779 2.85104 -8.80665 0.784666 3.14926 5.83437 -63.8085 46.1417 6.0077 10.8742 -1.29273 -0.307301 41.6942 74.6668 -0.665681 -21.6141 -1.1539 38.5093 38.0043 86.4947 19.4831 21.2099 5.8119 12.0996 24.4293 19.5104 -2.59357 14.4472 22.9808 20.3273 -7.05226 19.6627 24.3073 15.5304 -6.8996 16.0553 42.5823 5.34345 0.024029 -0.609063 -0.000255248 0.0240216 -0.0480492 0.609068 0 0.0354335 -0.609063 -0.000376476 1.4583e-006 -0.035433 0.609068 0 
-0.10222 -0.0600428 0.0397939 2.42533e-011 3.83008e-009 -5.10961e-006 0 -0 0 0 -0 0 0 -0 0 -0.711969 0.293002 -8.28859e-012 -8.93087 -17.6495 -30.3724 -18.6996 -30.9536 -32.1889 -0.268775 36.7784 2.16297 -37.9546 -59.6172 113.134 -6.70756 -6.90105 8.02897 0.0982623 -15.0409 -19.3986 5.4926 1.69229 -5.20773 -5.75983 1.24779 2.85104 -8.80665 0.784666 3.14926 5.83437 -63.8085 46.1417 5.8411 10.6812 -0.100608 -0.416043 42.3545 75.6439 -0.64722 -21.0147 -1.1219 38.4749 37.4005 85.7218 19.8913 21.6471 6.25319 12.4691 24.7069 19.518 -2.43692 14.9297 23.5627 20.7982 -7.14766 20.3296 24.7844 16.0277 -6.95585 16.7004 42.1335 6.83386 0.038594 -0.603308 -0.000406196 0.0240216 -0.0626135 0.603314 0 0.0499995 -0.603308 -0.00052629 1.16516e-006 -0.0499979 0.603314 0 
-0.102313 -0.0600421 0.0400255 -8.50434e-012 5.13339e-009 -5.1096e-006 0 -0 0 0 -0 0 0 -0 0 -0.711984 0.293272 -8.54293e-012 -8.93087 -17.6495 -30.3724 -18.6996 -30.9536 -32.1889 -0.268775 36.7784 2.16297 -37.9546 -59.6172 113.134 -6.70756 -6.90105 8.02897 0.0982623 -15.0409 -19.3986 5.4926 1.69229 -5.20773 -5.75983 1.24779 2.85104 -8.80665 0.784666 3.14926 5.83437 -63.8085 46.1417 5.67349 10.487 1.09202 -0.489717 43.0237 76.5799 -0.628648 -20.4116 -1.0897 38.4405 36.7967 84.9488 20.2994 22.0842 6.69447 12.8386 24.9844 19.5256 -2.28027 15.4122 24.1446 21.2692 -7.24306 20.9966 25.2614 16.525 -7.01209 17.3455 41.6848 8.32428 0.0531784 -0.597446 -0.000554319 0.0240216 -0.0771971 0.597451 0 0.064583 -0.597446 -0.000673237 2.41484e-006 -0.0645821 0.597451 0 
-0.102408 -0.0600414 0.0402572 -1.0894e-011 6.43788e-009 -5.10959e-006 0 -0 0 0 -0 0 0 -0 0 -0.711998 0.293547 -8.79141e-012 -8.93087 -17.6495 -30.3724 -18.6996 -30.9536 -32.1889 -0.268775 36.7784 2.16297 -37.9546 -59.6172 113.134 -6.70756 -6.90105 8.02897 0.0982623 -15.0409 -19.3986 5.4926 1.69229 -5.20773 -5.75983 1.24779 2.85104 -8.80665 0.784666 3.14926 5.83437 -63.8085 46.1417 5.50497 10.2916 2.2835 -0.528254 43.7011 77.4741 -0.609976 -19.8054 -1.05734 38.4061 36.1929 84.1759 20.7076 22.5213 7.13576 13.208 25.262 19.5332 -2.12362 15.8947 24.7264 21.7401 -7.33846 21.6636 25.7384 17.0222 -7.06834 17.9905 41.236 9.81469 0.0677712 -0.591477 -0.00069942 0.0240216 -0.0917892 0.591483 0 0.0791749 -0.591477 -0.00081714 2.83165e-006 -0.0791735 0.591483 0 
-0.102504 -0.0600407 0.0404889 1.31677e-012 7.74266e-009 -5.10959e-006 0 -0 0 0 -0 0 0 -0 0 -0.712012 0.293827 -9.03356e-012 -8.93087 -17.6495 -30.3724 -18.6996 -30.9536 -32.1889 -0.268775 36.7784 2.16297 -37.9546 -59.6172 113.134 -6.70756 -6.90105 8.02897 0.0982623 -15.0409 -19.3986 5.4926 1.69229 -5.20773 -5.75983 1.24779 2.85104 -8.80665 0.784666 3.14926 5.83437 -63.8085 46.1417 5.33563 10.0952 3.47217 -0.531811 44.3858 78.326 -0.591212 -19.1961 -1.02481 38.3717 35.5892 83.4029 21.1157 22.9584 7.57704 13.5775 25.5396 19.5407 -1.96697 16.3773 25.3083 22.2111 -7.43387 22.3305 26.2155 17.5195 -7.12459 18.6356 40.7873 11.3051 0.0823626 -0.585405 -0.000841317 0.0240216 -0.10638 0.58541 0 0.0937671 -0.585404 -0.000957837 2.83165e-006 -0.0937648 0.58541 0 
-0.102602 -0.0600401 0.0407204 5.00745e-012 9.04684e-009 -5.10958e-006 0 -0 0 0 -0 0 0 -0 0 -0.712027 0.294112 -9.26863e-012 -8.93087 -17.6495 -30.3724 -18.6996 -30.9536 -32.1889 -0.268775 36.7784 2.16297 -37.9546 -59.6172 113.134 -6.70756 -6.90105 8.02897 0.0982623 -15.0409 -19.3986 5.4926 1.69229 -5.20773 -5.75983 1.24779 2.85104 -8.80665 0.784666 3.14926 5.83437 -63.8085 46.1417 5.16557 9.89797 4.65626 -0.500577 45.0772 79.1351 -0.572369 -18.5843 -0.992148 38.3373 34.9854 82.63 21.5238 23.3956 8.01833 13.947 25.8171 19.5483 -1.81031 16.8598 25.8902 22.682 -7.52927 22.9975 26.6925 18.0168 -7.18084 19.2807 40.3385 12.7955 0.0969421 -0.579231 -0.00097983 0.0240216 -0.120959 0.579236 0 0.108348 -0.57923 -0.00109513 2.41484e-006 -0.108344 0.579236 0 
